REM MD5 977939772b06d8f7839bca00725aaf65
FILE "J.League Soccer - Jikkyou Survival League (Japan).bin" BINARY
  TRACK 01 MODE2/2352
    INDEX 01 00:00:00
  TRACK 02 AUDIO
    INDEX 00 43:57:66
    INDEX 01 43:59:66
  TRACK 03 AUDIO
    INDEX 00 44:34:33
    INDEX 01 44:36:33
  TRACK 04 AUDIO
    INDEX 00 45:42:51
    INDEX 01 45:44:51
  TRACK 05 AUDIO
    INDEX 00 47:57:32
    INDEX 01 47:59:32
REM LEADOUT 51:02:32
